<svg xmlns="http://www.w3.org/2000/svg" style="display: none;">
    <defs>
        <symbol id="i1" viewBox="0 0 448 512">
            <path d="M256 80c0-17.7-14.3-32-32-32s-32 14.3-32 32V224H48c-17.7 0-32 14.3-32 32s14.3 32 32 32H192V432c0 17.7 14.3 32 32 32s32-14.3 32-32V288H400c17.7 0 32-14.3 32-32s-14.3-32-32-32H256V80z"/>
        </symbol>
        <symbol id="i2" viewBox="0 0 26 26">
            <path d="M21.7344 19.6406l-2.0977 2.0938c-.3828.3867-1.0078.3867-1.3945 0L13 16.4961 7.7617 21.7344c-.3867.3867-1.0156.3867-1.3984 0L4.2656 19.6406c-.3867-.3867-.3867-1.0117 0-1.3984L9.5039 13 4.2656 7.7617c-.3828-.3906-.3828-1.0195 0-1.3984L6.3633 4.2656c.3828-.3867 1.0117-.3867 1.3984 0L13 9.5078l5.2422-5.2422c.3867-.3867 1.0156-.3867 1.3945 0l2.0977 2.0938c.3867.3867.3867 1.0156.0039 1.4023L16.4961 13l5.2383 5.2422c.3867.3867.3867 1.0117 0 1.3984Z"/>
        </symbol>
        <symbol id="i3" viewBox="0 0 50 50">
            <path d="M32.1367 3.0625c.2695-.0039.5313.1016.7227.2969L38.832 9.3828c.3906.3906.3867 1.0234-.0039 1.4141L24.4766 25.0313 38.7109 39.3789c.3906.3945.3867 1.0273-.0078 1.418l-6.0234 5.9727c-.3906.3906-1.0234.3867-1.4141-.0039L10.3516 25.6797c-.3906-.3906-.3867-1.0234.0078-1.4141L31.4414 3.3516c.1875-.1836.4336-.2891.6953-.2891Z"/>
        </symbol>
        <symbol id="i4" viewBox="0 0 24 24">
            <path d="M19,21H8V7H19M19,5H8A2,2 0 0,0 6,7V21A2,2 0 0,0 8,23H19A2,2 0 0,0 21,21V7A2,2 0 0,0 19,5M16,1H4A2,2 0 0,0 2,3V17H4V3H16V1Z"/>
        </symbol>
        <symbol id="i5" viewBox="0 0 24 24">
            <path d="M19,3H14.82C14.4,1.84 13.3,1 12,1C10.7,1 9.6,1.84 9.18,3H5A2,2 0 0,0 3,5V19A2,2 0 0,0 5,21H19A2,2 0 0,0 21,19V5A2,2 0 0,0 19,3M12,3A1,1 0 0,1 13,4A1,1 0 0,1 12,5A1,1 0 0,1 11,4A1,1 0 0,1 12,3M7,7H17V5H19V19H5V5H7V7M7.5,13.5L9,12L11,14L15.5,9.5L17,11L11,17L7.5,13.5Z"/>
        </symbol>
    </defs>
</svg>